<svg xmlns="http://www.w3.org/2000/svg" xmlns:xlink="http://www.w3.org/1999/xlink" viewBox="0,0,256,256" width="32px" height="32px"><g fill="#ffffff" fill-rule="nonzero" stroke="none" stroke-width="1" stroke-linecap="butt" stroke-linejoin="miter" stroke-miterlimit="10" stroke-dasharray="" stroke-dashoffset="0" font-family="none" font-weight="none" font-size="none" text-anchor="none" style="mix-blend-mode: normal"><g transform="scale(16,16)"><path d="M7.264,8.175c0.009,0.001 0.011,0.001 0.019,0.003c0.144,0.019 0.286,0.045 0.394,0.094c0.101,0.044 0.159,0.1 0.213,0.2c0.082,0.152 0.087,0.364 0.013,0.525c-0.055,0.12 -0.176,0.22 -0.287,0.273c-0.115,0.056 -0.228,0.082 -0.358,0.097c-0.227,0.025 -0.472,-0.022 -0.677,-0.121c-0.121,-0.059 -0.269,-0.161 -0.343,-0.291c-0.055,-0.096 -0.053,-0.221 0.013,-0.312c0.106,-0.145 0.333,-0.177 0.505,-0.171c0.131,0.005 0.365,0.045 0.489,0.089c0.035,0.013 0.161,0.062 0.183,0.085c0.015,0.016 0.025,0.039 0.019,0.06c-0.028,0.087 -0.239,0.132 -0.299,0.141c-0.163,0.025 -0.247,-0.037 -0.432,-0.11c-0.044,-0.017 -0.106,-0.037 -0.152,-0.041c-0.084,-0.008 -0.185,0.015 -0.201,0.107c-0.008,0.047 0.047,0.091 0.09,0.11c0.099,0.043 0.18,0.058 0.277,0.059c0.289,0.005 0.613,-0.043 0.849,-0.21c0.032,-0.023 0.064,-0.057 0.065,-0.099c0.001,-0.086 -0.149,-0.139 -0.149,-0.139c-0.16,-0.065 -0.454,-0.098 -0.605,-0.11c-0.159,-0.014 -0.409,-0.034 -0.469,-0.043c-0.062,-0.009 -0.129,-0.022 -0.183,-0.046c-0.054,-0.024 -0.106,-0.078 -0.122,-0.138c-0.027,-0.109 0.008,-0.242 0.068,-0.328c0.158,-0.227 0.527,-0.313 0.803,-0.347c0.267,-0.033 0.699,-0.033 0.961,0.107c0.041,0.022 0.062,0.042 0.053,0.085c-0.017,0.081 -0.078,0.133 -0.152,0.157c-0.078,0.024 -0.239,0.034 -0.309,0.038c-0.316,0.018 -0.698,0.009 -0.999,0.091c-0.023,0.007 -0.065,0.018 -0.077,0.033c-0.048,0.051 0.087,0.066 0.116,0.071c0.009,0.002 0.01,0.003 0.02,0.003l0.664,0.078M5.382,6.764c0,0 0.051,-0.077 0.095,-0.136c0.079,-0.107 0.221,-0.255 0.327,-0.346c0.033,-0.028 0.071,-0.059 0.071,-0.059c0,0 -0.06,0.006 -0.094,0.013c-0.081,0.016 -0.2,0.095 -0.259,0.146c-0.098,0.084 -0.206,0.221 -0.158,0.342c0.007,0.018 0.018,0.04 0.018,0.04M5.928,6.91c0.155,-0.011 0.3,-0.055 0.435,-0.13c0.133,-0.074 0.327,-0.218 0.307,-0.388c-0.006,-0.056 -0.042,-0.097 -0.087,-0.116c-0.059,-0.026 -0.09,-0.022 -0.165,0c-0.055,0.016 -0.08,0.026 -0.132,0.056c-0.152,0.088 -0.367,0.277 -0.484,0.428c-0.028,0.035 -0.055,0.075 -0.076,0.102c-0.014,0.017 -0.024,0.032 -0.023,0.037c0.004,0.017 0.164,0.015 0.225,0.011M5.533,7.2c-0.016,0.017 -0.033,0.058 -0.051,0.088c-0.009,0.016 -0.026,0.036 -0.038,0.044c-0.04,0.029 -0.074,0.031 -0.113,-0.004c-0.055,-0.048 -0.086,-0.123 -0.089,-0.196c-0.001,-0.032 0.004,-0.066 -0.002,-0.093c-0.01,-0.045 -0.055,-0.091 -0.079,-0.135c-0.029,-0.05 -0.052,-0.139 -0.055,-0.196c-0.01,-0.179 0.084,-0.343 0.207,-0.473c0.123,-0.131 0.284,-0.24 0.459,-0.314c0.165,-0.07 0.408,-0.117 0.59,-0.054c0.059,0.02 0.141,0.071 0.183,0.123c0.009,0.011 0.017,0.023 0.025,0.029c0.008,0.005 0.03,0.007 0.046,0.01c0.058,0.01 0.141,0.054 0.175,0.083c0.069,0.06 0.107,0.116 0.124,0.198c0.035,0.165 -0.06,0.346 -0.169,0.456c-0.185,0.189 -0.368,0.322 -0.605,0.415c-0.104,0.041 -0.266,0.079 -0.384,0.068c-0.037,-0.003 -0.075,-0.013 -0.11,-0.015c-0.018,-0.002 -0.085,-0.019 -0.092,-0.024c-0.009,-0.006 -0.02,-0.012 -0.022,-0.01M5.744,7.566c0.007,0.001 0.019,0.005 0.028,0.008c0.084,0.031 0.118,0.109 0.138,0.193c0.047,0.196 0.067,0.63 0.075,0.8c0.007,0.128 0.009,0.253 0.015,0.379c0.005,0.107 0.013,0.249 -0.009,0.349c-0.008,0.036 -0.032,0.078 -0.067,0.099c-0.039,0.025 -0.129,0.027 -0.179,0.017c-0.121,-0.025 -0.161,-0.103 -0.179,-0.223c-0.041,-0.288 -0.021,-0.851 0.003,-1.089c0.008,-0.079 0.037,-0.33 0.079,-0.435c0.015,-0.036 0.044,-0.108 0.096,-0.098M2.044,8.044c0,0 -0.181,0.013 -0.305,0.027c-0.159,0.017 -0.457,0.068 -0.628,0.13c-0.052,0.018 -0.156,0.062 -0.166,0.115c-0.009,0.055 0.025,0.098 0.063,0.143c0.022,0.026 0.146,0.145 0.181,0.174c0.146,0.122 0.442,0.31 0.66,0.401c0.075,0.031 0.199,0.075 0.199,0.075c0,0 -0.009,-0.353 -0.007,-0.7c-0.001,-0.184 0.003,-0.365 0.003,-0.365M5.364,8.184c0.01,0.095 -0.014,0.274 -0.018,0.297c-0.008,0.055 -0.049,0.18 -0.055,0.195c-0.033,0.077 -0.066,0.139 -0.101,0.201c-0.059,0.107 -0.201,0.276 -0.284,0.349c-0.311,0.269 -0.794,0.423 -1.208,0.473c-0.281,0.034 -0.603,0.029 -0.901,-0.026c-0.103,-0.019 -0.255,-0.054 -0.255,-0.054c0,0 0.001,0.061 -0.005,0.104c-0.003,0.019 -0.017,0.071 -0.025,0.088c-0.021,0.045 -0.057,0.068 -0.109,0.077c-0.063,0.011 -0.129,0.015 -0.186,-0.009c-0.095,-0.04 -0.129,-0.128 -0.145,-0.23c-0.013,-0.081 -0.027,-0.223 -0.027,-0.223c0,0 -0.071,-0.033 -0.13,-0.063c-0.181,-0.089 -0.353,-0.197 -0.504,-0.309c-0.042,-0.031 -0.221,-0.181 -0.261,-0.219c-0.111,-0.105 -0.211,-0.21 -0.287,-0.345c-0.059,-0.103 -0.076,-0.196 -0.031,-0.307c0.062,-0.155 0.284,-0.272 0.437,-0.339c0.112,-0.049 0.459,-0.163 0.603,-0.184c0.068,-0.01 0.174,-0.029 0.181,-0.033c0.003,-0.002 0.005,-0.004 0.007,-0.006c0.003,-0.005 0.009,-0.158 0.007,-0.214c-0.002,-0.055 0.04,-0.418 0.054,-0.495c0.008,-0.041 0.039,-0.201 0.071,-0.243c0.021,-0.028 0.058,-0.026 0.088,-0.007c0.165,0.103 0.216,0.46 0.228,0.641c0.007,0.111 0.011,0.277 0.011,0.277c0,0 0.19,-0.005 0.307,-0.002c0.113,0.003 0.239,0.021 0.356,0.039c0.151,0.024 0.445,0.088 0.613,0.174c0.139,0.071 0.269,0.189 0.311,0.315c0.039,0.116 0.033,0.195 -0.026,0.299c-0.067,0.118 -0.193,0.205 -0.322,0.212c-0.038,0.002 -0.182,-0.017 -0.227,-0.052c-0.017,-0.013 -0.016,-0.038 -0.004,-0.055c0.005,-0.007 0.072,-0.042 0.112,-0.063c0.02,-0.011 0.037,-0.023 0.052,-0.037c0.033,-0.029 0.063,-0.061 0.059,-0.099c-0.004,-0.048 -0.055,-0.078 -0.105,-0.098c-0.23,-0.091 -0.69,-0.167 -0.912,-0.181c-0.086,-0.005 -0.21,-0.009 -0.21,-0.009l0.026,1.226c0,0 0.102,0.019 0.183,0.033c0.046,0.007 0.242,0.025 0.294,0.026c0.396,0.011 0.839,-0.025 1.202,-0.197c0.161,-0.075 0.307,-0.168 0.418,-0.295c0.145,-0.167 0.222,-0.396 0.202,-0.636c-0.022,-0.261 -0.206,-0.572 -0.353,-0.762c-0.389,-0.499 -1.055,-0.91 -1.64,-1.151c-0.598,-0.246 -1.19,-0.387 -1.824,-0.411c-0.164,-0.006 -0.521,0.002 -0.701,0.052c-0.026,0.008 -0.052,0.016 -0.075,0.022c-0.019,0.004 -0.049,0.017 -0.057,0.024c-0.005,0.003 -0.009,0.008 -0.009,0.008c0,0 0.011,0.006 0.022,0.011c0.019,0.009 0.099,0.013 0.141,0.021c0.037,0.007 0.076,0.026 0.091,0.054c0.015,0.026 0.017,0.046 -0.001,0.068c-0.041,0.05 -0.195,0.041 -0.263,0.031c-0.07,-0.012 -0.158,-0.033 -0.174,-0.095c-0.018,-0.072 0.016,-0.142 0.053,-0.208c0.075,-0.131 0.181,-0.199 0.337,-0.241c0.222,-0.061 0.501,-0.103 0.711,-0.111c0.474,-0.018 0.923,0.065 1.381,0.205c0.264,0.078 0.608,0.211 0.86,0.333c0.181,0.087 0.465,0.247 0.625,0.352c0.051,0.033 0.345,0.25 0.391,0.289c0.095,0.078 0.221,0.191 0.311,0.281c0.175,0.174 0.393,0.44 0.499,0.651c0.027,0.05 0.047,0.1 0.079,0.159c0.011,0.02 0.06,0.14 0.068,0.175c0.008,0.035 0.02,0.085 0.022,0.087c0.001,0.017 0.023,0.12 0.022,0.16M11.321,7.913c-0.222,0.051 -0.805,0.079 -0.805,0.079l-0.073,0.231c0,0 0.291,-0.025 0.504,-0.003c0,0 0.069,-0.008 0.077,0.078c0.003,0.08 -0.007,0.166 -0.007,0.166c0,0 -0.005,0.052 -0.078,0.065c-0.08,0.013 -0.629,0.035 -0.629,0.035l-0.089,0.301c0,0 -0.033,0.069 0.041,0.049c0.069,-0.019 0.643,-0.126 0.719,-0.111c0.08,0.02 0.169,0.127 0.143,0.225c-0.031,0.121 -0.604,0.487 -0.953,0.461c0,0 -0.183,0.012 -0.339,-0.236c-0.145,-0.236 0.054,-0.683 0.054,-0.683c0,0 -0.091,-0.209 -0.025,-0.279c0,0 0.039,-0.036 0.154,-0.044l0.141,-0.291c0,0 -0.16,0.011 -0.255,-0.107c-0.089,-0.112 -0.097,-0.163 -0.029,-0.194c0.073,-0.036 0.74,-0.157 1.199,-0.142c0,0 0.159,-0.015 0.298,0.261c-0.001,0 0.065,0.112 -0.048,0.139M9.594,9.031c-0.059,0.139 -0.214,0.286 -0.407,0.194c-0.191,-0.092 -0.494,-0.713 -0.494,-0.713c0,0 -0.115,-0.231 -0.137,-0.225c0,0 -0.025,-0.045 -0.04,0.208c-0.016,0.252 0.003,0.743 -0.097,0.821c-0.095,0.077 -0.211,0.047 -0.271,-0.044c-0.055,-0.09 -0.077,-0.302 -0.048,-0.675c0.035,-0.373 0.121,-0.771 0.233,-0.894c0.111,-0.122 0.199,-0.033 0.234,-0.001c0,0 0.148,0.134 0.392,0.528l0.043,0.073c0,0 0.222,0.372 0.245,0.371c0,0 0.018,0.017 0.034,0.005c0.023,-0.007 0.014,-0.126 0.014,-0.126c0,0 -0.046,-0.406 -0.249,-1.092c0,0 -0.031,-0.085 -0.01,-0.166c0.021,-0.081 0.102,-0.043 0.102,-0.043c0,0 0.313,0.158 0.466,0.668c0.152,0.511 0.05,0.972 -0.01,1.111M12.97,8.726c-0.143,0.249 -0.546,0.771 -1.081,0.647c-0.177,0.429 -0.325,0.863 -0.411,1.512c0,0 -0.019,0.126 -0.123,0.083c-0.104,-0.037 -0.275,-0.209 -0.31,-0.448c-0.037,-0.314 0.103,-0.845 0.388,-1.453c-0.083,-0.135 -0.14,-0.329 -0.091,-0.605c0,0 0.072,-0.511 0.585,-0.973c0,0 0.061,-0.053 0.097,-0.037c0.039,0.017 0.021,0.183 -0.01,0.264c-0.033,0.081 -0.261,0.477 -0.261,0.477c0,0 -0.143,0.267 -0.103,0.479c0.269,-0.415 0.882,-1.25 1.262,-0.987c0.127,0.091 0.187,0.29 0.187,0.504c0,0.187 -0.045,0.387 -0.129,0.537M12.859,8.069c0,0 -0.021,-0.165 -0.182,0.017c-0.139,0.153 -0.389,0.44 -0.589,0.83c0.211,-0.024 0.415,-0.138 0.476,-0.197c0.099,-0.088 0.333,-0.329 0.295,-0.65M15.92,8.032h-0.981c-0.019,-0.333 -0.06,-0.659 -0.123,-0.993c-0.007,-0.035 -0.037,-0.06 -0.072,-0.06h-0.226c-0.02,0 -0.039,0.009 -0.051,0.024c-0.013,0.016 -0.018,0.035 -0.014,0.055c0.064,0.324 0.105,0.643 0.125,0.974h-0.944c-0.044,0 -0.08,0.035 -0.08,0.079v0.204c0,0.044 0.036,0.08 0.08,0.08h0.958c0.001,0.051 0.001,0.095 0.001,0.138c0,0.294 -0.013,0.537 -0.043,0.81c-0.003,0.021 0.005,0.042 0.019,0.058c0.014,0.015 0.034,0.025 0.055,0.025h0.21c0.041,0 0.075,-0.031 0.079,-0.071c0.029,-0.275 0.041,-0.521 0.041,-0.821c0,-0.042 -0.001,-0.087 -0.001,-0.138h0.968c0.044,0 0.08,-0.036 0.08,-0.08v-0.204c-0.001,-0.044 -0.037,-0.08 -0.081,-0.08M2.795,5.297c-0.014,0.021 -0.018,0.046 -0.01,0.069c0.009,0.024 0.027,0.042 0.05,0.05l0.176,0.059c0.011,0.003 0.021,0.005 0.031,0.005c0.033,0 0.063,-0.016 0.081,-0.043c0.578,-0.846 1.358,-1.551 2.257,-2.038c0.929,-0.503 1.981,-0.769 3.044,-0.769c1.283,0 2.521,0.379 3.58,1.095c1.033,0.699 1.836,1.673 2.321,2.817c0.015,0.034 0.048,0.057 0.085,0.057h0.21c0.024,0 0.047,-0.012 0.061,-0.033c0.014,-0.02 0.017,-0.046 0.007,-0.069c-0.5,-1.231 -1.346,-2.281 -2.446,-3.035c-1.126,-0.772 -2.447,-1.18 -3.818,-1.18c-2.268,0.001 -4.373,1.128 -5.629,3.015M12.176,11.396c0.322,0 0.593,0.12 0.765,0.37h0.008v-0.311h0.414v2.206h-0.414v-0.343h-0.008c-0.155,0.263 -0.434,0.398 -0.749,0.398c-0.645,0 -1.171,-0.486 -1.171,-1.123c0,-0.703 0.506,-1.197 1.155,-1.197zM5.591,11.396c0.609,0 1.183,0.478 1.175,1.179c-0.008,0.601 -0.521,1.165 -1.248,1.142c-0.617,-0.019 -1.141,-0.549 -1.133,-1.165c0.007,-0.666 0.534,-1.156 1.206,-1.156zM8.929,11.396c0.367,0 0.665,0.255 0.677,0.645h-0.414c-0.02,-0.159 -0.111,-0.267 -0.283,-0.267c-0.159,0 -0.259,0.108 -0.259,0.235c0,0.187 0.191,0.243 0.41,0.311c0.311,0.096 0.597,0.283 0.597,0.693c0,0.426 -0.311,0.705 -0.741,0.705c-0.398,0 -0.781,-0.271 -0.781,-0.781h0.414c0.02,0.267 0.155,0.402 0.374,0.402c0.191,0 0.319,-0.123 0.319,-0.303c0,-0.151 -0.115,-0.251 -0.374,-0.334c-0.542,-0.171 -0.633,-0.406 -0.633,-0.657c0.001,-0.39 0.331,-0.649 0.694,-0.649zM2.044,10.715c0.229,0 0.414,0.185 0.414,0.414v0.562h0.008c0.131,-0.195 0.343,-0.295 0.617,-0.295c0.526,0 0.92,0.334 0.92,0.94v1.326h-0.413v-1.199c0,-0.474 -0.183,-0.689 -0.55,-0.689c-0.363,0 -0.582,0.263 -0.582,0.693v1.195h-0.414zM7.65,10.715v0.741h0.363v0.378h-0.363v1.828c-0.229,0 -0.414,-0.185 -0.414,-0.414v-1.414h-0.171v-0.378h0.171v-0.741h0.414zM10.527,10.715v0.741h0.363v0.378h-0.362v1.828c-0.229,0 -0.414,-0.185 -0.414,-0.414v-1.414h-0.172v-0.378h0.171v-0.741h0.414zM14.853,11.396v0.426c-0.358,0.012 -0.542,0.231 -0.542,0.602v0.824c0,0.229 -0.185,0.414 -0.414,0.414v-2.206h0.386v0.199h0.008c0.1,-0.148 0.271,-0.243 0.562,-0.259zM5.571,11.774c-0.475,0 -0.877,0.461 -0.749,0.974c0.087,0.348 0.404,0.6 0.763,0.591c0.424,-0.012 0.766,-0.35 0.766,-0.788c0.001,-0.43 -0.346,-0.777 -0.78,-0.777zM12.188,11.774c-0.437,0 -0.79,0.395 -0.75,0.861c0.034,0.385 0.348,0.696 0.734,0.703c0.438,0.009 0.784,-0.353 0.784,-0.776c0.001,-0.429 -0.31,-0.788 -0.768,-0.788z"></path></g></g></svg>